<mxfile host="app.diagrams.net" agent="Mozilla/5.0 (Windows NT 10.0; Win64; x64) AppleWebKit/537.36 (KHTML, like Gecko) Chrome/134.0.0.0 Safari/537.36" version="26.1.1">
  <diagram name="Page-1" id="P5vMONWDA_FDcLZrv6Wx">
    <mxGraphModel dx="1120" dy="468" grid="1" gridSize="10" guides="1" tooltips="1" connect="1" arrows="1" fold="1" page="1" pageScale="1" pageWidth="1100" pageHeight="850" math="0" shadow="0">
      <root>
        <mxCell id="0" />
        <mxCell id="1" parent="0" />
        <mxCell id="eI-Qs4KyL5MhgWiYJFtH-1" value="Subscriber" style="swimlane;fontStyle=1;align=center;verticalAlign=top;childLayout=stackLayout;horizontal=1;startSize=26;horizontalStack=0;resizeParent=1;resizeParentMax=0;resizeLast=0;collapsible=1;marginBottom=0;whiteSpace=wrap;html=1;" vertex="1" parent="1">
          <mxGeometry x="160" y="40" width="190" height="180" as="geometry" />
        </mxCell>
        <mxCell id="eI-Qs4KyL5MhgWiYJFtH-2" value="- username: string&lt;div&gt;- email: string&lt;/div&gt;&lt;div&gt;- subscribed_to: list&amp;lt;Producer&amp;gt;&lt;/div&gt;" style="text;strokeColor=none;fillColor=none;align=left;verticalAlign=top;spacingLeft=4;spacingRight=4;overflow=hidden;rotatable=0;points=[[0,0.5],[1,0.5]];portConstraint=eastwest;whiteSpace=wrap;html=1;" vertex="1" parent="eI-Qs4KyL5MhgWiYJFtH-1">
          <mxGeometry y="26" width="190" height="54" as="geometry" />
        </mxCell>
        <mxCell id="eI-Qs4KyL5MhgWiYJFtH-3" value="" style="line;strokeWidth=1;fillColor=none;align=left;verticalAlign=middle;spacingTop=-1;spacingLeft=3;spacingRight=3;rotatable=0;labelPosition=right;points=[];portConstraint=eastwest;strokeColor=inherit;" vertex="1" parent="eI-Qs4KyL5MhgWiYJFtH-1">
          <mxGeometry y="80" width="190" height="8" as="geometry" />
        </mxCell>
        <mxCell id="eI-Qs4KyL5MhgWiYJFtH-4" value="+ getUserName(): string&lt;div&gt;+ getEmail(): string&lt;/div&gt;&lt;div&gt;+ setUserName(string): void&lt;/div&gt;&lt;div&gt;+ setEmail(string): void&lt;/div&gt;&lt;div&gt;+ addProducer(Producer): void&lt;/div&gt;" style="text;strokeColor=none;fillColor=none;align=left;verticalAlign=top;spacingLeft=4;spacingRight=4;overflow=hidden;rotatable=0;points=[[0,0.5],[1,0.5]];portConstraint=eastwest;whiteSpace=wrap;html=1;" vertex="1" parent="eI-Qs4KyL5MhgWiYJFtH-1">
          <mxGeometry y="88" width="190" height="92" as="geometry" />
        </mxCell>
        <mxCell id="eI-Qs4KyL5MhgWiYJFtH-10" value="Producer" style="swimlane;fontStyle=1;align=center;verticalAlign=top;childLayout=stackLayout;horizontal=1;startSize=26;horizontalStack=0;resizeParent=1;resizeParentMax=0;resizeLast=0;collapsible=1;marginBottom=0;whiteSpace=wrap;html=1;" vertex="1" parent="1">
          <mxGeometry x="150" y="320" width="210" height="190" as="geometry" />
        </mxCell>
        <mxCell id="eI-Qs4KyL5MhgWiYJFtH-11" value="- no_of_subs: int&lt;div&gt;- channels: map&amp;lt;UUID,Channel&amp;gt;&lt;/div&gt;&lt;div&gt;&lt;br&gt;&lt;/div&gt;" style="text;strokeColor=none;fillColor=none;align=left;verticalAlign=top;spacingLeft=4;spacingRight=4;overflow=hidden;rotatable=0;points=[[0,0.5],[1,0.5]];portConstraint=eastwest;whiteSpace=wrap;html=1;" vertex="1" parent="eI-Qs4KyL5MhgWiYJFtH-10">
          <mxGeometry y="26" width="210" height="44" as="geometry" />
        </mxCell>
        <mxCell id="eI-Qs4KyL5MhgWiYJFtH-12" value="" style="line;strokeWidth=1;fillColor=none;align=left;verticalAlign=middle;spacingTop=-1;spacingLeft=3;spacingRight=3;rotatable=0;labelPosition=right;points=[];portConstraint=eastwest;strokeColor=inherit;" vertex="1" parent="eI-Qs4KyL5MhgWiYJFtH-10">
          <mxGeometry y="70" width="210" height="8" as="geometry" />
        </mxCell>
        <mxCell id="eI-Qs4KyL5MhgWiYJFtH-13" value="+ increaseSubCount(): void&lt;div&gt;+ decrementSubCount(): void&lt;/div&gt;&lt;div&gt;+ getSubCount(): int&lt;/div&gt;&lt;div&gt;+ setSubCount(int): void&amp;nbsp;&lt;/div&gt;&lt;div&gt;+ addChannel(UUID, Channel): void&lt;/div&gt;&lt;div&gt;+ removeChannel(UUID): void&amp;nbsp;&lt;/div&gt;&lt;div&gt;+ getChannels(): set&amp;lt;Channel&amp;gt;&lt;/div&gt;" style="text;strokeColor=none;fillColor=none;align=left;verticalAlign=top;spacingLeft=4;spacingRight=4;overflow=hidden;rotatable=0;points=[[0,0.5],[1,0.5]];portConstraint=eastwest;whiteSpace=wrap;html=1;" vertex="1" parent="eI-Qs4KyL5MhgWiYJFtH-10">
          <mxGeometry y="78" width="210" height="112" as="geometry" />
        </mxCell>
        <mxCell id="eI-Qs4KyL5MhgWiYJFtH-15" value="Extends" style="endArrow=block;endSize=16;endFill=0;html=1;rounded=0;exitX=0.5;exitY=0;exitDx=0;exitDy=0;entryX=0.511;entryY=1.028;entryDx=0;entryDy=0;entryPerimeter=0;" edge="1" parent="1" source="eI-Qs4KyL5MhgWiYJFtH-10" target="eI-Qs4KyL5MhgWiYJFtH-4">
          <mxGeometry width="160" relative="1" as="geometry">
            <mxPoint x="470" y="250" as="sourcePoint" />
            <mxPoint x="630" y="250" as="targetPoint" />
          </mxGeometry>
        </mxCell>
        <mxCell id="eI-Qs4KyL5MhgWiYJFtH-16" value="Channel" style="swimlane;fontStyle=1;align=center;verticalAlign=top;childLayout=stackLayout;horizontal=1;startSize=26;horizontalStack=0;resizeParent=1;resizeParentMax=0;resizeLast=0;collapsible=1;marginBottom=0;whiteSpace=wrap;html=1;" vertex="1" parent="1">
          <mxGeometry x="590" y="270" width="160" height="130" as="geometry" />
        </mxCell>
        <mxCell id="eI-Qs4KyL5MhgWiYJFtH-17" value="- no_of_watchers: int&lt;div&gt;- videos: list&amp;lt;Video&amp;gt;&lt;/div&gt;" style="text;strokeColor=none;fillColor=none;align=left;verticalAlign=top;spacingLeft=4;spacingRight=4;overflow=hidden;rotatable=0;points=[[0,0.5],[1,0.5]];portConstraint=eastwest;whiteSpace=wrap;html=1;" vertex="1" parent="eI-Qs4KyL5MhgWiYJFtH-16">
          <mxGeometry y="26" width="160" height="44" as="geometry" />
        </mxCell>
        <mxCell id="eI-Qs4KyL5MhgWiYJFtH-18" value="" style="line;strokeWidth=1;fillColor=none;align=left;verticalAlign=middle;spacingTop=-1;spacingLeft=3;spacingRight=3;rotatable=0;labelPosition=right;points=[];portConstraint=eastwest;strokeColor=inherit;" vertex="1" parent="eI-Qs4KyL5MhgWiYJFtH-16">
          <mxGeometry y="70" width="160" height="8" as="geometry" />
        </mxCell>
        <mxCell id="eI-Qs4KyL5MhgWiYJFtH-19" value="+ setVid(Video): void&lt;div&gt;+ getWatchNo(): int&lt;/div&gt;&lt;div&gt;+&amp;nbsp;&lt;/div&gt;" style="text;strokeColor=none;fillColor=none;align=left;verticalAlign=top;spacingLeft=4;spacingRight=4;overflow=hidden;rotatable=0;points=[[0,0.5],[1,0.5]];portConstraint=eastwest;whiteSpace=wrap;html=1;" vertex="1" parent="eI-Qs4KyL5MhgWiYJFtH-16">
          <mxGeometry y="78" width="160" height="52" as="geometry" />
        </mxCell>
        <mxCell id="eI-Qs4KyL5MhgWiYJFtH-23" value="" style="endArrow=none;html=1;edgeStyle=orthogonalEdgeStyle;rounded=0;" edge="1" parent="1" source="eI-Qs4KyL5MhgWiYJFtH-1" target="eI-Qs4KyL5MhgWiYJFtH-10">
          <mxGeometry relative="1" as="geometry">
            <mxPoint x="470" y="210" as="sourcePoint" />
            <mxPoint x="630" y="210" as="targetPoint" />
            <Array as="points">
              <mxPoint x="90" y="130" />
              <mxPoint x="90" y="415" />
            </Array>
          </mxGeometry>
        </mxCell>
        <mxCell id="eI-Qs4KyL5MhgWiYJFtH-25" value="1..*" style="edgeLabel;resizable=0;html=1;align=right;verticalAlign=bottom;" connectable="0" vertex="1" parent="eI-Qs4KyL5MhgWiYJFtH-23">
          <mxGeometry x="1" relative="1" as="geometry">
            <mxPoint x="-10" as="offset" />
          </mxGeometry>
        </mxCell>
        <mxCell id="eI-Qs4KyL5MhgWiYJFtH-26" value="1...*" style="text;html=1;align=center;verticalAlign=middle;resizable=0;points=[];autosize=1;strokeColor=none;fillColor=none;" vertex="1" parent="1">
          <mxGeometry x="115" y="108" width="40" height="30" as="geometry" />
        </mxCell>
        <mxCell id="eI-Qs4KyL5MhgWiYJFtH-27" value="Subscribe to" style="text;html=1;align=center;verticalAlign=middle;resizable=0;points=[];autosize=1;strokeColor=none;fillColor=none;" vertex="1" parent="1">
          <mxGeometry x="5" y="258" width="90" height="30" as="geometry" />
        </mxCell>
        <mxCell id="eI-Qs4KyL5MhgWiYJFtH-30" value="1" style="endArrow=open;html=1;endSize=12;startArrow=diamondThin;startSize=14;startFill=1;edgeStyle=orthogonalEdgeStyle;align=left;verticalAlign=bottom;rounded=0;entryX=0;entryY=0.077;entryDx=0;entryDy=0;entryPerimeter=0;" edge="1" parent="1" source="eI-Qs4KyL5MhgWiYJFtH-10" target="eI-Qs4KyL5MhgWiYJFtH-16">
          <mxGeometry x="-1" y="3" relative="1" as="geometry">
            <mxPoint x="470" y="210" as="sourcePoint" />
            <mxPoint x="630" y="210" as="targetPoint" />
          </mxGeometry>
        </mxCell>
        <mxCell id="eI-Qs4KyL5MhgWiYJFtH-31" value="1..*" style="text;html=1;align=center;verticalAlign=middle;resizable=0;points=[];autosize=1;strokeColor=none;fillColor=none;" vertex="1" parent="1">
          <mxGeometry x="540" y="258" width="40" height="30" as="geometry" />
        </mxCell>
      </root>
    </mxGraphModel>
  </diagram>
</mxfile>
